<svg id="visual" viewBox="0 0 900 600" width="900" height="600" xmlns="http://www.w3.org/2000/svg" xmlns:xlink="http://www.w3.org/1999/xlink" version="1.1"><rect x="0" y="0" width="900" height="600" fill="#131316"></rect><path d="M0 248L129 248L129 262L257 262L257 260L386 260L386 249L514 249L514 269L643 269L643 225L771 225L771 240L900 240L900 228L900 0L900 0L771 0L771 0L643 0L643 0L514 0L514 0L386 0L386 0L257 0L257 0L129 0L129 0L0 0Z" fill="#044335"></path><path d="M0 181L129 181L129 179L257 179L257 206L386 206L386 173L514 173L514 217L643 217L643 174L771 174L771 213L900 213L900 193L900 0L900 0L771 0L771 0L643 0L643 0L514 0L514 0L386 0L386 0L257 0L257 0L129 0L129 0L0 0Z" fill="#096857"></path><path d="M0 152L129 152L129 109L257 109L257 132L386 132L386 129L514 129L514 123L643 123L643 143L771 143L771 142L900 142L900 120L900 0L900 0L771 0L771 0L643 0L643 0L514 0L514 0L386 0L386 0L257 0L257 0L129 0L129 0L0 0Z" fill="#0b8f7c"></path><path d="M0 85L129 85L129 84L257 84L257 50L386 50L386 82L514 82L514 88L643 88L643 67L771 67L771 82L900 82L900 71L900 0L900 0L771 0L771 0L643 0L643 0L514 0L514 0L386 0L386 0L257 0L257 0L129 0L129 0L0 0Z" fill="#00b8a6"></path></svg>