<svg id="visual" viewBox="0 0 900 600" width="900" height="600" xmlns="http://www.w3.org/2000/svg" xmlns:xlink="http://www.w3.org/1999/xlink" version="1.1"><rect x="0" y="0" width="900" height="600" fill="#131316"></rect><path d="M308 0L331 0L331 86L303 86L303 171L259 171L259 257L297 257L297 343L346 343L346 429L329 429L329 514L299 514L299 600L0 600L0 514L0 514L0 429L0 429L0 343L0 343L0 257L0 257L0 171L0 171L0 86L0 86L0 0L0 0Z" fill="#044335"></path><path d="M222 0L232 0L232 86L188 86L188 171L243 171L243 257L242 257L242 343L183 343L183 429L180 429L180 514L239 514L239 600L0 600L0 514L0 514L0 429L0 429L0 343L0 343L0 257L0 257L0 171L0 171L0 86L0 86L0 0L0 0Z" fill="#0b7b69"></path><path d="M154 0L87 0L87 86L114 86L114 171L65 171L65 257L157 257L157 343L132 343L132 429L162 429L162 514L126 514L126 600L0 600L0 514L0 514L0 429L0 429L0 343L0 343L0 257L0 257L0 171L0 171L0 86L0 86L0 0L0 0Z" fill="#00b8a6"></path></svg>