<svg id="visual" viewBox="0 0 900 600" width="900" height="600" xmlns="http://www.w3.org/2000/svg" xmlns:xlink="http://www.w3.org/1999/xlink" version="1.1"><rect x="0" y="0" width="900" height="600" fill="#131316"></rect><path d="M237 0L237.8 14.3C238.7 28.7 240.3 57.3 212.8 85.8C185.3 114.3 128.7 142.7 115.8 171.2C103 199.7 134 228.3 152.8 257C171.7 285.7 178.3 314.3 178.2 343C178 371.7 171 400.3 158.3 428.8C145.7 457.3 127.3 485.7 129 514.2C130.7 542.7 152.3 571.3 163.2 585.7L174 600L0 600L0 585.7C0 571.3 0 542.7 0 514.2C0 485.7 0 457.3 0 428.8C0 400.3 0 371.7 0 343C0 314.3 0 285.7 0 257C0 228.3 0 199.7 0 171.2C0 142.7 0 114.3 0 85.8C0 57.3 0 28.7 0 14.3L0 0Z" fill="#00b8a6" stroke-linecap="round" stroke-linejoin="miter"></path></svg>