<svg id="visual" viewBox="0 0 900 600" width="900" height="600" xmlns="http://www.w3.org/2000/svg" xmlns:xlink="http://www.w3.org/1999/xlink" version="1.1"><rect x="0" y="0" width="900" height="600" fill="#131316"></rect><path d="M0 64L13.7 58C27.3 52 54.7 40 82 33C109.3 26 136.7 24 163.8 23.8C191 23.7 218 25.3 245.2 32C272.3 38.7 299.7 50.3 327 72.3C354.3 94.3 381.7 126.7 409 130C436.3 133.3 463.7 107.7 491 88.7C518.3 69.7 545.7 57.3 573 47.3C600.3 37.3 627.7 29.7 654.8 37.7C682 45.7 709 69.3 736.2 88.3C763.3 107.3 790.7 121.7 818 119.5C845.3 117.3 872.7 98.7 886.3 89.3L900 80L900 0L886.3 0C872.7 0 845.3 0 818 0C790.7 0 763.3 0 736.2 0C709 0 682 0 654.8 0C627.7 0 600.3 0 573 0C545.7 0 518.3 0 491 0C463.7 0 436.3 0 409 0C381.7 0 354.3 0 327 0C299.7 0 272.3 0 245.2 0C218 0 191 0 163.8 0C136.7 0 109.3 0 82 0C54.7 0 27.3 0 13.7 0L0 0Z" fill="#00b8a6" stroke-linecap="round" stroke-linejoin="miter"></path></svg>