<svg id="visual" viewBox="0 0 900 600" width="900" height="600" xmlns="http://www.w3.org/2000/svg" xmlns:xlink="http://www.w3.org/1999/xlink" version="1.1"><rect x="0" y="0" width="900" height="600" fill="#131316"></rect><path d="M374 0L395 0L395 86L392 86L392 171L376 171L376 257L405 257L405 343L341 343L341 429L362 429L362 514L345 514L345 600L0 600L0 514L0 514L0 429L0 429L0 343L0 343L0 257L0 257L0 171L0 171L0 86L0 86L0 0L0 0Z" fill="#044335"></path><path d="M273 0L271 0L271 86L312 86L312 171L262 171L262 257L329 257L329 343L264 343L264 429L322 429L322 514L293 514L293 600L0 600L0 514L0 514L0 429L0 429L0 343L0 343L0 257L0 257L0 171L0 171L0 86L0 86L0 0L0 0Z" fill="#096857"></path><path d="M230 0L165 0L165 86L201 86L201 171L196 171L196 257L187 257L187 343L217 343L217 429L215 429L215 514L183 514L183 600L0 600L0 514L0 514L0 429L0 429L0 343L0 343L0 257L0 257L0 171L0 171L0 86L0 86L0 0L0 0Z" fill="#0b8f7c"></path><path d="M131 0L128 0L128 86L77 86L77 171L125 171L125 257L134 257L134 343L103 343L103 429L126 429L126 514L109 514L109 600L0 600L0 514L0 514L0 429L0 429L0 343L0 343L0 257L0 257L0 171L0 171L0 86L0 86L0 0L0 0Z" fill="#00b8a6"></path></svg>